<?xml version="1.0" standalone="no"?>
<!DOCTYPE svg PUBLIC "-//W3C//DTD SVG 20010904//EN"
 "http://www.w3.org/TR/2001/REC-SVG-20010904/DTD/svg10.dtd">
<svg version="1.0" xmlns="http://www.w3.org/2000/svg"
 width="400.000000pt" height="400.000000pt" viewBox="0 0 400.000000 400.000000"
 preserveAspectRatio="xMidYMid meet">

<g transform="translate(0.000000,400.000000) scale(0.100000,-0.100000)"
fill="#000000" stroke="none">
<path d="M1676 3185 c-9 -9 -16 -24 -16 -32 0 -9 30 -68 67 -132 37 -64 80
-140 96 -169 l29 -54 62 8 c287 36 551 -67 725 -284 44 -54 93 -144 130 -234
l11 -28 185 0 c192 0 216 4 236 41 11 22 10 25 -264 499 -181 315 -187 323
-280 372 -42 23 -46 23 -503 26 -414 2 -464 1 -478 -13z"/>
<path d="M1123 2868 c-33 -42 -433 -751 -442 -783 -15 -55 -14 -135 3 -183 8
-23 86 -164 172 -314 279 -485 265 -463 300 -466 19 -2 35 3 45 15 17 20 189
317 189 327 0 3 -21 34 -46 68 -55 75 -88 139 -122 233 -36 105 -43 298 -13
415 27 107 68 195 131 280 28 37 50 70 50 73 0 7 -179 319 -192 335 -6 6 -23
12 -38 12 -15 0 -32 -6 -37 -12z"/>
<path d="M1739 2726 c-82 -29 -176 -86 -245 -149 l-52 -48 119 -207 c125 -217
139 -249 139 -322 0 -75 -18 -117 -136 -322 -63 -108 -114 -202 -114 -208 0
-24 98 -103 190 -154 57 -31 190 -81 195 -74 1 2 53 93 116 203 118 207 158
258 231 297 41 22 56 23 308 28 l265 5 13 55 c17 74 19 240 3 322 l-13 66
-251 4 c-210 4 -260 8 -301 23 -81 30 -131 89 -256 308 -74 129 -118 197 -129
197 -9 0 -46 -11 -82 -24z"/>
<path d="M2770 1716 c0 -8 -20 -54 -44 -102 -132 -264 -385 -425 -671 -428
-55 -1 -122 2 -150 6 l-50 8 -99 -171 c-85 -148 -98 -175 -90 -197 6 -16 20
-29 39 -34 42 -11 793 -9 867 3 111 18 174 68 252 203 214 367 373 644 379
660 5 11 1 28 -8 42 -15 24 -16 24 -220 24 -169 0 -205 -2 -205 -14z"/>
</g>
</svg>
